<svg width="16" height="16" viewBox="0 0 16 16" fill="none" xmlns="http://www.w3.org/2000/svg">
<path fill-rule="evenodd" clip-rule="evenodd" d="M8 1C11.866 1 15 4.13401 15 8C15 11.866 11.866 15 8 15C4.13401 15 1 11.866 1 8C1 4.13401 4.13401 1 8 1ZM8 10.2103C7.51675 10.2103 7.125 10.6021 7.125 11.0853C7.125 11.5686 7.51675 11.9603 8 11.9603C8.48325 11.9603 8.875 11.5686 8.875 11.0853C8.875 10.6021 8.48325 10.2103 8 10.2103ZM8 4.30609C7.59729 4.30609 7.27083 4.63255 7.27083 5.03525V8.72304C7.27083 9.12575 7.59729 9.45221 8 9.45221C8.40271 9.45221 8.72917 9.12575 8.72917 8.72304V5.03525C8.72917 4.63255 8.40271 4.30609 8 4.30609Z" fill="#B3B3B3"/>
</svg>
