<svg width="16" height="16" viewBox="0 0 16 16" fill="none" xmlns="http://www.w3.org/2000/svg">
<path fill-rule="evenodd" clip-rule="evenodd" d="M8 1C11.866 1 15 4.13401 15 8C15 11.866 11.866 15 8 15C4.13401 15 1 11.866 1 8C1 4.13401 4.13401 1 8 1ZM10.6983 5.77014L6.89707 9.57135L5.59719 7.92769C5.34739 7.61182 4.88883 7.55826 4.57296 7.80806C4.25709 8.05787 4.20353 8.51643 4.45334 8.8323L6.26142 11.1186C6.53202 11.4607 7.04049 11.4903 7.34895 11.1819L11.7295 6.80134C12.0142 6.51658 12.0142 6.0549 11.7295 5.77014C11.4447 5.48538 10.983 5.48538 10.6983 5.77014Z" fill="#B3B3B3"/>
</svg>
