<svg width="16" height="16" viewBox="0 0 16 16" fill="none" xmlns="http://www.w3.org/2000/svg">
<path fill-rule="evenodd" clip-rule="evenodd" d="M1 8C1 4.13401 4.13401 1 8 1C9.85651 1 11.637 1.7375 12.9497 3.05025C14.2625 4.36301 15 6.14348 15 8C15 11.866 11.866 15 8 15C4.13401 15 1 11.866 1 8ZM8.72919 11.9871C8.72926 11.9146 8.78234 11.8531 8.85402 11.8424C9.79798 11.7078 10.5332 10.9555 10.6454 10.0086C10.7576 9.06171 10.2187 8.15783 9.33235 7.80633L7.20902 6.95641C6.91827 6.84084 6.75071 6.53492 6.80988 6.22769C6.86904 5.92046 7.13823 5.69865 7.4511 5.69933H9.5441C9.94681 5.69933 10.2733 5.37287 10.2733 4.97016C10.2733 4.56745 9.94681 4.24099 9.5441 4.24099H8.87502C8.79448 4.24099 8.72919 4.1757 8.72919 4.09516V3.68332C8.72919 3.28062 8.40273 2.95416 8.00002 2.95416C7.59731 2.95416 7.27085 3.28062 7.27085 3.68332V4.12957C7.27074 4.20192 7.21761 4.26324 7.14602 4.27366C6.20206 4.40827 5.4668 5.16117 5.3546 6.10805C5.2424 7.05494 5.78133 7.95882 6.66769 8.31033L8.79102 9.16024C9.08124 9.27636 9.24825 9.58206 9.18917 9.88901C9.13009 10.196 8.86152 10.4178 8.54894 10.4179H6.45594C6.05323 10.4179 5.72677 10.7444 5.72677 11.1471C5.72677 11.5498 6.05323 11.8762 6.45594 11.8762H7.12502C7.16375 11.8761 7.20093 11.8914 7.22831 11.9188C7.2557 11.9462 7.27101 11.9834 7.27085 12.0221V12.4333C7.27085 12.836 7.59731 13.1625 8.00002 13.1625C8.40273 13.1625 8.72919 12.836 8.72919 12.4333V11.9871Z" fill="#B3B3B3"/>
</svg>
